# xmcd
#
# Track frame offsets: 
#        150
#        13900
#        25858
#        40730
#        55480
#        65519
#        78262
#        91916
#        104643
#        117216
#        131170
#        144867
#        158458
#        169905
#        179994
#        195374
#        210523
#        229256
#        243651
#        254139
#
# Disc length: 3533 seconds
#
# Revision: 12
# Processed by: cddbd v1.5.2PL0 Copyright (c) Steve Scherf et al.
# Submitted via: ExactAudioCopy v0.99pb5
#
DISCID=1e0dcb14
DTITLE=Django Reinhardt - Djangology CD 08.10
DYEAR=2000
DGENRE=Jazz
TTITLE0=Vendredi 13  (Reinhardt)
TTITLE1=Liebesfreud  (Kreisler - arr. Reinhardt)
TTITLE2=Mabel  (Reinhardt)
TTITLE3=Petits Mensonges  (Donaldson)
TTITLE4=Les Yeux Noirs [1]  (Trad.)
TTITLE5=Sweet Sue  (Young - Harris)
TTITLE6=Swing De Paris  (Reinhardt)
TTITLE7=Oiseaux Des Iles  (Reinhardt)
TTITLE8=All Of Me  (Marks - Simons)
TTITLE9=Pour Terminer  (Combelle - Wagner)
TTITLE10=Pour Commencer  (Wagner)
TTITLE11=Les Yeux Noirs [2]  (Trad.)
TTITLE12=Begin The Beguine  (Porter)
TTITLE13=Swingin' The Blues  (Basie)
TTITLE14=Petite Lili  (Allier)
TTITLE15=Ninouche  (Allier)
TTITLE16=Festival Swing  (Combelle - Combelle)
TTITLE17=Stockholm  (Reinhardt)
TTITLE18=La Cigale Et La Fourmi  (Trenet - La Fontaine)
TTITLE19=Hungaria  (Reinhardt)
EXTD=
EXTT0=
EXTT1=
EXTT2=
EXTT3=
EXTT4=
EXTT5=
EXTT6=
EXTT7=
EXTT8=
EXTT9=
EXTT10=
EXTT11=
EXTT12=
EXTT13=
EXTT14=
EXTT15=
EXTT16=
EXTT17=
EXTT18=
EXTT19=
PLAYORDER=
